<svg width="32" height="32" viewBox="0 0 32 32" fill="none" xmlns="http://www.w3.org/2000/svg">
<path d="M16 32C24.8366 32 32 24.8366 32 16C32 7.16344 24.8366 0 16 0C7.16344 0 0 7.16344 0 16C0 24.8366 7.16344 32 16 32Z" fill="#FFCC4D"/>
<path d="M15.9999 18.6666C12.7795 18.6666 10.6426 18.2915 7.99995 17.7777C7.39639 17.6613 6.22217 17.7777 6.22217 19.5555C6.22217 23.1111 10.3066 27.5555 15.9999 27.5555C21.6924 27.5555 25.7777 23.1111 25.7777 19.5555C25.7777 17.7777 24.6035 17.6604 23.9999 17.7777C21.3573 18.2915 19.2204 18.6666 15.9999 18.6666Z" fill="#F2994A"/>
<path d="M8 19.5555C8 19.5555 10.6667 20.4444 16 20.4444C21.3333 20.4444 24 19.5555 24 19.5555C24 19.5555 22.2222 24.1111 16 24.1111C9.77778 24.1111 8 19.5555 8 19.5555Z" fill="#FF0000"/>
<path d="M23.699 11.4658C23.699 12.9893 22.8652 14.2249 21.8359 14.2249C20.8075 14.2249 19.9728 12.9893 19.9728 11.4658C19.9728 9.94222 20.8066 8.70667 21.8359 8.70667C22.8652 8.70667 23.699 9.94222 23.699 11.4658ZM8.43945 11.4658C8.43945 12.9893 9.27323 14.2249 10.3026 14.2249C11.331 14.2249 12.1657 12.9893 12.1657 11.4658C12.1657 9.94222 11.3319 8.70667 10.3026 8.70667C9.27323 8.70667 8.43945 9.94222 8.43945 11.4658Z" fill="#333333"/>
<path d="M30.9734 7.38106C30.8214 7.2335 29.8472 7.62461 28.8614 7.12239C26.8277 6.08594 21.6881 5.08594 18.3423 7.45661C17.9841 7.70994 16.4872 7.75261 16.0686 7.73483C15.6499 7.7535 14.153 7.71083 13.7948 7.45661C10.4499 5.08594 5.31033 6.08594 3.27656 7.12239C2.29078 7.62461 1.31656 7.2335 1.16456 7.38106C0.945 7.5935 0.945 8.44417 1.16544 8.6575C1.38411 8.86994 2.47833 9.11528 2.69611 9.75261C2.91567 10.3908 2.91744 14.1597 4.66322 15.4628C6.29789 16.6824 10.1112 17.0495 12.5281 15.6744C14.6366 14.4753 14.5628 11.9508 14.9494 10.4468C15.0872 9.91083 15.4757 9.64061 16.0694 9.64061C16.6632 9.64061 17.0517 9.91083 17.1894 10.4468C17.5761 11.9499 17.5014 14.4753 19.6108 15.6744C22.0277 17.0486 25.841 16.6815 27.4748 15.4628C29.2214 14.1606 29.2232 10.3908 29.4419 9.75261C29.6597 9.11528 30.7539 8.86906 30.9726 8.6575C31.193 8.44417 31.1939 7.5935 30.9734 7.38106V7.38106ZM13.0232 10.6255C12.9548 11.6077 12.7797 13.4939 11.6037 14.1633C10.8828 14.5739 9.94322 14.8237 8.96011 14.8237H8.95922C7.87033 14.8237 6.361 14.5153 5.77078 14.0753C5.033 13.5251 4.75211 11.2602 4.64633 10.4131C4.57878 9.8735 4.39744 8.55528 4.99122 8.35261C5.93344 8.03172 7.24811 7.78106 8.593 7.78106C9.209 7.78106 11.2783 7.81928 12.2863 8.43972C13.1797 8.98817 13.0614 10.0851 13.0232 10.6255V10.6255ZM27.4926 10.4006C27.3868 11.2486 27.1059 13.5251 26.3681 14.0753C25.7779 14.5153 24.2686 14.8237 23.1797 14.8237H23.1788C22.1948 14.8237 21.2561 14.5739 20.5343 14.1633C19.3583 13.4948 19.1832 11.6202 19.1148 10.6379C19.0774 10.0975 18.9583 8.99261 19.8517 8.44417C20.8606 7.82372 22.929 7.78106 23.545 7.78106C24.8899 7.78106 26.2037 8.02728 27.1468 8.34817C27.7406 8.55083 27.5601 9.86106 27.4926 10.4006V10.4006Z" fill="#EB5757"/>
</svg>
