<svg width="1120" height="566" viewBox="0 0 1120 566" fill="none" xmlns="http://www.w3.org/2000/svg">
<path d="M1019.97 184.416C1019.97 190.059 1015.4 194.633 1009.77 194.633C1004.13 194.633 999.564 190.059 999.564 184.416C999.564 178.774 1004.13 174.2 1009.77 174.2C1015.38 174.2 1019.97 178.774 1019.97 184.416Z" stroke="#FF3877" stroke-width="3" stroke-miterlimit="10" stroke-linecap="round" stroke-linejoin="round"/>
<path d="M1017.14 191.465L1024.34 198.69" stroke="#FF3877" stroke-width="3" stroke-miterlimit="10" stroke-linecap="round" stroke-linejoin="round"/>
<path d="M276.043 154.336L286.777 165.085" stroke="#FF3877" stroke-width="3" stroke-miterlimit="10" stroke-linecap="round" stroke-linejoin="round"/>
<path d="M286.777 154.336L276.043 165.085" stroke="#FF3877" stroke-width="3" stroke-miterlimit="10" stroke-linecap="round" stroke-linejoin="round"/>
<path d="M891.351 407.815L902.085 418.564" stroke="#FF3877" stroke-width="3" stroke-miterlimit="10" stroke-linecap="round" stroke-linejoin="round"/>
<path d="M902.085 407.815L891.351 418.564" stroke="#FF3877" stroke-width="3" stroke-miterlimit="10" stroke-linecap="round" stroke-linejoin="round"/>
<path d="M304.853 502.314V517.515" stroke="#FF3877" stroke-width="3" stroke-miterlimit="10" stroke-linecap="round" stroke-linejoin="round"/>
<path d="M312.462 509.913H297.264" stroke="#FF3877" stroke-width="3" stroke-miterlimit="10" stroke-linecap="round" stroke-linejoin="round"/>
<path d="M99.8944 251.428C99.8944 256.519 95.7706 260.666 90.6691 260.666C85.5854 260.666 81.4438 256.537 81.4438 251.428C81.4438 246.338 85.5677 242.19 90.6691 242.19C95.7706 242.208 99.8944 246.338 99.8944 251.428Z" stroke="#FF3877" stroke-width="3" stroke-miterlimit="10" stroke-linecap="round" stroke-linejoin="round"/>
<path d="M642.451 11.2379C642.451 16.3285 638.327 20.4758 633.225 20.4758C628.142 20.4758 624 16.3463 624 11.2379C624 6.14727 628.124 2 633.225 2C638.327 2.0178 642.451 6.14727 642.451 11.2379Z" stroke="#FF3877" stroke-width="3" stroke-miterlimit="10" stroke-linecap="round" stroke-linejoin="round"/>
<path d="M778.167 554.767C778.167 559.857 774.043 564.004 768.942 564.004C763.858 564.004 759.716 559.875 759.716 554.767C759.716 549.676 763.84 545.529 768.942 545.529C774.043 545.546 778.167 549.676 778.167 554.767Z" stroke="#FF3877" stroke-width="3" stroke-miterlimit="10" stroke-linecap="round" stroke-linejoin="round"/>
<path d="M3.34163 378.873C5.18689 378.873 6.68277 377.375 6.68277 375.527C6.68277 373.68 5.18689 372.182 3.34163 372.182C1.49637 372.182 0.000488281 373.68 0.000488281 375.527C0.000488281 377.375 1.49637 378.873 3.34163 378.873Z" fill="#FF6193"/>
<path d="M26.6798 378.873C28.525 378.873 30.0209 377.375 30.0209 375.527C30.0209 373.68 28.525 372.182 26.6798 372.182C24.8345 372.182 23.3386 373.68 23.3386 375.527C23.3386 377.375 24.8345 378.873 26.6798 378.873Z" fill="#FF6193"/>
<path d="M50.0008 378.873C51.8461 378.873 53.3419 377.375 53.3419 375.527C53.3419 373.68 51.8461 372.182 50.0008 372.182C48.1555 372.182 46.6597 373.68 46.6597 375.527C46.6597 377.375 48.1555 378.873 50.0008 378.873Z" fill="#FF6193"/>
<path d="M73.3399 378.873C75.1852 378.873 76.6811 377.375 76.6811 375.527C76.6811 373.68 75.1852 372.182 73.3399 372.182C71.4947 372.182 69.9988 373.68 69.9988 375.527C69.9988 377.375 71.4947 378.873 73.3399 378.873Z" fill="#FF6193"/>
<path d="M96.6607 378.873C98.506 378.873 100.002 377.375 100.002 375.527C100.002 373.68 98.506 372.182 96.6607 372.182C94.8155 372.182 93.3196 373.68 93.3196 375.527C93.3196 377.375 94.8155 378.873 96.6607 378.873Z" fill="#FF6193"/>
<path d="M119.999 378.873C121.844 378.873 123.34 377.375 123.34 375.527C123.34 373.68 121.844 372.182 119.999 372.182C118.154 372.182 116.658 373.68 116.658 375.527C116.658 377.375 118.154 378.873 119.999 378.873Z" fill="#FF6193"/>
<path d="M3.34114 402.226C5.1864 402.226 6.68228 400.728 6.68228 398.88C6.68228 397.032 5.1864 395.534 3.34114 395.534C1.49588 395.534 0 397.032 0 398.88C0 400.728 1.49588 402.226 3.34114 402.226Z" fill="#FF6193"/>
<path d="M26.6798 402.226C28.525 402.226 30.0209 400.728 30.0209 398.88C30.0209 397.032 28.525 395.534 26.6798 395.534C24.8345 395.534 23.3386 397.032 23.3386 398.88C23.3386 400.728 24.8345 402.226 26.6798 402.226Z" fill="#FF6193"/>
<path d="M50.0013 402.226C51.8466 402.226 53.3424 400.728 53.3424 398.88C53.3424 397.032 51.8466 395.534 50.0013 395.534C48.156 395.534 46.6602 397.032 46.6602 398.88C46.6602 400.728 48.156 402.226 50.0013 402.226Z" fill="#FF6193"/>
<path d="M73.3399 402.226C75.1852 402.226 76.6811 400.728 76.6811 398.88C76.6811 397.032 75.1852 395.534 73.3399 395.534C71.4947 395.534 69.9988 397.032 69.9988 398.88C69.9988 400.728 71.4947 402.226 73.3399 402.226Z" fill="#FF6193"/>
<path d="M96.6607 402.226C98.506 402.226 100.002 400.728 100.002 398.88C100.002 397.032 98.506 395.534 96.6607 395.534C94.8155 395.534 93.3196 397.032 93.3196 398.88C93.3196 400.728 94.8155 402.226 96.6607 402.226Z" fill="#FF6193"/>
<path d="M119.999 402.226C121.844 402.226 123.34 400.728 123.34 398.88C123.34 397.032 121.844 395.534 119.999 395.534C118.154 395.534 116.658 397.032 116.658 398.88C116.658 400.728 118.154 402.226 119.999 402.226Z" fill="#FF6193"/>
<path d="M3.34114 425.597C5.1864 425.597 6.68228 424.099 6.68228 422.251C6.68228 420.403 5.1864 418.905 3.34114 418.905C1.49588 418.905 0 420.403 0 422.251C0 424.099 1.49588 425.597 3.34114 425.597Z" fill="#FF6193"/>
<path d="M26.6798 425.597C28.525 425.597 30.0209 424.099 30.0209 422.251C30.0209 420.403 28.525 418.905 26.6798 418.905C24.8345 418.905 23.3386 420.403 23.3386 422.251C23.3386 424.099 24.8345 425.597 26.6798 425.597Z" fill="#FF6193"/>
<path d="M50.0013 425.597C51.8466 425.597 53.3424 424.099 53.3424 422.251C53.3424 420.403 51.8466 418.905 50.0013 418.905C48.156 418.905 46.6602 420.403 46.6602 422.251C46.6602 424.099 48.156 425.597 50.0013 425.597Z" fill="#FF6193"/>
<path d="M73.3399 425.597C75.1852 425.597 76.6811 424.099 76.6811 422.251C76.6811 420.403 75.1852 418.905 73.3399 418.905C71.4947 418.905 69.9988 420.403 69.9988 422.251C69.9988 424.099 71.4947 425.597 73.3399 425.597Z" fill="#FF6193"/>
<path d="M96.6607 425.597C98.506 425.597 100.002 424.099 100.002 422.251C100.002 420.403 98.506 418.905 96.6607 418.905C94.8155 418.905 93.3196 420.403 93.3196 422.251C93.3196 424.099 94.8155 425.597 96.6607 425.597Z" fill="#FF6193"/>
<path d="M119.999 425.597C121.844 425.597 123.34 424.099 123.34 422.251C123.34 420.403 121.844 418.905 119.999 418.905C118.154 418.905 116.658 420.403 116.658 422.251C116.658 424.099 118.154 425.597 119.999 425.597Z" fill="#FF6193"/>
<path d="M3.34114 448.95C5.1864 448.95 6.68228 447.452 6.68228 445.604C6.68228 443.756 5.1864 442.258 3.34114 442.258C1.49588 442.258 0 443.756 0 445.604C0 447.452 1.49588 448.95 3.34114 448.95Z" fill="#FF6193"/>
<path d="M26.6798 448.95C28.525 448.95 30.0209 447.452 30.0209 445.604C30.0209 443.756 28.525 442.258 26.6798 442.258C24.8345 442.258 23.3386 443.756 23.3386 445.604C23.3386 447.452 24.8345 448.95 26.6798 448.95Z" fill="#FF6193"/>
<path d="M50.0013 448.95C51.8466 448.95 53.3424 447.452 53.3424 445.604C53.3424 443.756 51.8466 442.258 50.0013 442.258C48.156 442.258 46.6602 443.756 46.6602 445.604C46.6602 447.452 48.156 448.95 50.0013 448.95Z" fill="#FF6193"/>
<path d="M73.3399 448.95C75.1852 448.95 76.6811 447.452 76.6811 445.604C76.6811 443.756 75.1852 442.258 73.3399 442.258C71.4947 442.258 69.9988 443.756 69.9988 445.604C69.9988 447.452 71.4947 448.95 73.3399 448.95Z" fill="#FF6193"/>
<path d="M96.6607 448.95C98.506 448.95 100.002 447.452 100.002 445.604C100.002 443.756 98.506 442.258 96.6607 442.258C94.8155 442.258 93.3196 443.756 93.3196 445.604C93.3196 447.452 94.8155 448.95 96.6607 448.95Z" fill="#FF6193"/>
<path d="M119.999 448.95C121.844 448.95 123.34 447.452 123.34 445.604C123.34 443.756 121.844 442.258 119.999 442.258C118.154 442.258 116.658 443.756 116.658 445.604C116.658 447.452 118.154 448.95 119.999 448.95Z" fill="#FF6193"/>
<path d="M773.172 145.799C775.018 145.799 776.513 144.301 776.513 142.453C776.513 140.606 775.018 139.108 773.172 139.108C771.327 139.108 769.831 140.606 769.831 142.453C769.831 144.301 771.327 145.799 773.172 145.799Z" fill="#723C5C"/>
<path d="M796.493 145.799C798.338 145.799 799.834 144.301 799.834 142.453C799.834 140.606 798.338 139.108 796.493 139.108C794.648 139.108 793.152 140.606 793.152 142.453C793.152 144.301 794.648 145.799 796.493 145.799Z" fill="#723C5C"/>
<path d="M819.831 145.799C821.677 145.799 823.172 144.301 823.172 142.453C823.172 140.606 821.677 139.108 819.831 139.108C817.986 139.108 816.49 140.606 816.49 142.453C816.49 144.301 817.986 145.799 819.831 145.799Z" fill="#723C5C"/>
<path d="M773.172 169.17C775.017 169.17 776.513 167.672 776.513 165.824C776.513 163.976 775.017 162.478 773.172 162.478C771.326 162.478 769.831 163.976 769.831 165.824C769.831 167.672 771.326 169.17 773.172 169.17Z" fill="#723C5C"/>
<path d="M796.493 169.17C798.338 169.17 799.834 167.672 799.834 165.824C799.834 163.976 798.338 162.479 796.493 162.479C794.648 162.479 793.152 163.976 793.152 165.824C793.152 167.672 794.648 169.17 796.493 169.17Z" fill="#723C5C"/>
<path d="M819.831 169.17C821.677 169.17 823.172 167.672 823.172 165.824C823.172 163.976 821.677 162.479 819.831 162.479C817.986 162.479 816.49 163.976 816.49 165.824C816.49 167.672 817.986 169.17 819.831 169.17Z" fill="#723C5C"/>
<path d="M260.901 23.6149C262.746 23.6149 264.242 22.117 264.242 20.2692C264.242 18.4214 262.746 16.9235 260.901 16.9235C259.055 16.9235 257.559 18.4214 257.559 20.2692C257.559 22.117 259.055 23.6149 260.901 23.6149Z" fill="#FF6193"/>
<path d="M284.221 23.6149C286.066 23.6149 287.562 22.117 287.562 20.2692C287.562 18.4214 286.066 16.9235 284.221 16.9235C282.376 16.9235 280.88 18.4214 280.88 20.2692C280.88 22.117 282.376 23.6149 284.221 23.6149Z" fill="#FF6193"/>
<path d="M307.559 23.6149C309.404 23.6149 310.9 22.117 310.9 20.2692C310.9 18.4214 309.404 16.9235 307.559 16.9235C305.714 16.9235 304.218 18.4214 304.218 20.2692C304.218 22.117 305.714 23.6149 307.559 23.6149Z" fill="#FF6193"/>
<path d="M260.9 46.9855C262.745 46.9855 264.241 45.4876 264.241 43.6398C264.241 41.792 262.745 40.2941 260.9 40.2941C259.055 40.2941 257.559 41.792 257.559 43.6398C257.559 45.4876 259.055 46.9855 260.9 46.9855Z" fill="#FF6193"/>
<path d="M284.221 46.9855C286.066 46.9855 287.562 45.4876 287.562 43.6398C287.562 41.792 286.066 40.2941 284.221 40.2941C282.376 40.2941 280.88 41.792 280.88 43.6398C280.88 45.4876 282.376 46.9855 284.221 46.9855Z" fill="#FF6193"/>
<path d="M307.56 46.9855C309.406 46.9855 310.901 45.4876 310.901 43.6398C310.901 41.792 309.406 40.2941 307.56 40.2941C305.715 40.2941 304.219 41.792 304.219 43.6398C304.219 45.4876 305.715 46.9855 307.56 46.9855Z" fill="#FF6193"/>
<path d="M1115.85 378.873C1117.7 378.873 1119.2 377.375 1119.2 375.527C1119.2 373.68 1117.7 372.182 1115.85 372.182C1114.01 372.182 1112.51 373.68 1112.51 375.527C1112.51 377.375 1114.01 378.873 1115.85 378.873Z" fill="#FF6193"/>
<path d="M1115.85 402.244C1117.7 402.244 1119.2 400.746 1119.2 398.898C1119.2 397.05 1117.7 395.552 1115.85 395.552C1114.01 395.552 1112.51 397.05 1112.51 398.898C1112.51 400.746 1114.01 402.244 1115.85 402.244Z" fill="#FF6193"/>
<path d="M1115.85 425.596C1117.7 425.596 1119.2 424.099 1119.2 422.251C1119.2 420.403 1117.7 418.905 1115.85 418.905C1114.01 418.905 1112.51 420.403 1112.51 422.251C1112.51 424.099 1114.01 425.596 1115.85 425.596Z" fill="#FF6193"/>
<path d="M1115.85 448.967C1117.7 448.967 1119.2 447.469 1119.2 445.621C1119.2 443.774 1117.7 442.276 1115.85 442.276C1114.01 442.276 1112.51 443.774 1112.51 445.621C1112.51 447.469 1114.01 448.967 1115.85 448.967Z" fill="#FF6193"/>
<path d="M1115.85 472.32C1117.7 472.32 1119.2 470.822 1119.2 468.974C1119.2 467.127 1117.7 465.629 1115.85 465.629C1114.01 465.629 1112.51 467.127 1112.51 468.974C1112.51 470.822 1114.01 472.32 1115.85 472.32Z" fill="#FF6193"/>
<path d="M1115.85 495.691C1117.7 495.691 1119.2 494.193 1119.2 492.345C1119.2 490.497 1117.7 488.999 1115.85 488.999C1114.01 488.999 1112.51 490.497 1112.51 492.345C1112.51 494.193 1114.01 495.691 1115.85 495.691Z" fill="#FF6193"/>
<path d="M1115.85 519.043C1117.7 519.043 1119.2 517.545 1119.2 515.698C1119.2 513.85 1117.7 512.352 1115.85 512.352C1114.01 512.352 1112.51 513.85 1112.51 515.698C1112.51 517.545 1114.01 519.043 1115.85 519.043Z" fill="#FF6193"/>
<path d="M1092.52 378.873C1094.36 378.873 1095.86 377.375 1095.86 375.527C1095.86 373.68 1094.36 372.182 1092.52 372.182C1090.67 372.182 1089.18 373.68 1089.18 375.527C1089.18 377.375 1090.67 378.873 1092.52 378.873Z" fill="#FF6193"/>
<path d="M1092.52 402.244C1094.36 402.244 1095.86 400.746 1095.86 398.898C1095.86 397.05 1094.36 395.552 1092.52 395.552C1090.67 395.552 1089.18 397.05 1089.18 398.898C1089.18 400.746 1090.67 402.244 1092.52 402.244Z" fill="#FF6193"/>
<path d="M1092.52 425.596C1094.36 425.596 1095.86 424.099 1095.86 422.251C1095.86 420.403 1094.36 418.905 1092.52 418.905C1090.67 418.905 1089.18 420.403 1089.18 422.251C1089.18 424.099 1090.67 425.596 1092.52 425.596Z" fill="#FF6193"/>
<path d="M1092.52 448.967C1094.36 448.967 1095.86 447.469 1095.86 445.621C1095.86 443.774 1094.36 442.276 1092.52 442.276C1090.67 442.276 1089.18 443.774 1089.18 445.621C1089.18 447.469 1090.67 448.967 1092.52 448.967Z" fill="#FF6193"/>
<path d="M1092.52 472.32C1094.36 472.32 1095.86 470.822 1095.86 468.974C1095.86 467.127 1094.36 465.629 1092.52 465.629C1090.67 465.629 1089.18 467.127 1089.18 468.974C1089.18 470.822 1090.67 472.32 1092.52 472.32Z" fill="#FF6193"/>
<path d="M1092.52 495.691C1094.36 495.691 1095.86 494.193 1095.86 492.345C1095.86 490.497 1094.36 488.999 1092.52 488.999C1090.67 488.999 1089.18 490.497 1089.18 492.345C1089.18 494.193 1090.67 495.691 1092.52 495.691Z" fill="#FF6193"/>
<path d="M1092.52 519.043C1094.36 519.043 1095.86 517.545 1095.86 515.698C1095.86 513.85 1094.36 512.352 1092.52 512.352C1090.67 512.352 1089.18 513.85 1089.18 515.698C1089.18 517.545 1090.67 519.043 1092.52 519.043Z" fill="#FF6193"/>
<path d="M1069.19 378.873C1071.04 378.873 1072.54 377.375 1072.54 375.527C1072.54 373.68 1071.04 372.182 1069.19 372.182C1067.35 372.182 1065.85 373.68 1065.85 375.527C1065.85 377.375 1067.35 378.873 1069.19 378.873Z" fill="#FF6193"/>
<path d="M1069.19 402.244C1071.04 402.244 1072.54 400.746 1072.54 398.898C1072.54 397.05 1071.04 395.552 1069.19 395.552C1067.35 395.552 1065.85 397.05 1065.85 398.898C1065.85 400.746 1067.35 402.244 1069.19 402.244Z" fill="#FF6193"/>
<path d="M1069.19 425.596C1071.04 425.596 1072.54 424.099 1072.54 422.251C1072.54 420.403 1071.04 418.905 1069.19 418.905C1067.35 418.905 1065.85 420.403 1065.85 422.251C1065.85 424.099 1067.35 425.596 1069.19 425.596Z" fill="#FF6193"/>
<path d="M1069.19 448.967C1071.04 448.967 1072.54 447.469 1072.54 445.621C1072.54 443.774 1071.04 442.276 1069.19 442.276C1067.35 442.276 1065.85 443.774 1065.85 445.621C1065.85 447.469 1067.35 448.967 1069.19 448.967Z" fill="#FF6193"/>
<path d="M1069.19 472.32C1071.04 472.32 1072.54 470.822 1072.54 468.974C1072.54 467.127 1071.04 465.629 1069.19 465.629C1067.35 465.629 1065.85 467.127 1065.85 468.974C1065.85 470.822 1067.35 472.32 1069.19 472.32Z" fill="#FF6193"/>
<path d="M1069.19 495.691C1071.04 495.691 1072.54 494.193 1072.54 492.345C1072.54 490.497 1071.04 488.999 1069.19 488.999C1067.35 488.999 1065.85 490.497 1065.85 492.345C1065.85 494.193 1067.35 495.691 1069.19 495.691Z" fill="#FF6193"/>
<path d="M1069.19 519.043C1071.04 519.043 1072.54 517.545 1072.54 515.698C1072.54 513.85 1071.04 512.352 1069.19 512.352C1067.35 512.352 1065.85 513.85 1065.85 515.698C1065.85 517.545 1067.35 519.043 1069.19 519.043Z" fill="#FF6193"/>
<path d="M1045.86 378.873C1047.7 378.873 1049.2 377.375 1049.2 375.527C1049.2 373.68 1047.7 372.182 1045.86 372.182C1044.01 372.182 1042.52 373.68 1042.52 375.527C1042.52 377.375 1044.01 378.873 1045.86 378.873Z" fill="#FF6193"/>
<path d="M1045.86 402.244C1047.7 402.244 1049.2 400.746 1049.2 398.898C1049.2 397.05 1047.7 395.552 1045.86 395.552C1044.01 395.552 1042.51 397.05 1042.51 398.898C1042.51 400.746 1044.01 402.244 1045.86 402.244Z" fill="#FF6193"/>
<path d="M1045.86 425.597C1047.7 425.597 1049.2 424.099 1049.2 422.251C1049.2 420.403 1047.7 418.905 1045.86 418.905C1044.01 418.905 1042.51 420.403 1042.51 422.251C1042.51 424.099 1044.01 425.597 1045.86 425.597Z" fill="#FF6193"/>
<path d="M1045.86 448.967C1047.7 448.967 1049.2 447.469 1049.2 445.621C1049.2 443.774 1047.7 442.276 1045.86 442.276C1044.01 442.276 1042.51 443.774 1042.51 445.621C1042.51 447.469 1044.01 448.967 1045.86 448.967Z" fill="#FF6193"/>
<path d="M1045.86 472.32C1047.7 472.32 1049.2 470.822 1049.2 468.974C1049.2 467.127 1047.7 465.629 1045.86 465.629C1044.01 465.629 1042.51 467.127 1042.51 468.974C1042.51 470.822 1044.01 472.32 1045.86 472.32Z" fill="#FF6193"/>
<path d="M1045.86 495.691C1047.7 495.691 1049.2 494.193 1049.2 492.345C1049.2 490.497 1047.7 488.999 1045.86 488.999C1044.01 488.999 1042.51 490.497 1042.51 492.345C1042.51 494.193 1044.01 495.691 1045.86 495.691Z" fill="#FF6193"/>
<path d="M1045.86 519.043C1047.7 519.043 1049.2 517.545 1049.2 515.698C1049.2 513.85 1047.7 512.352 1045.86 512.352C1044.01 512.352 1042.51 513.85 1042.51 515.698C1042.51 517.545 1044.01 519.043 1045.86 519.043Z" fill="#FF6193"/>
</svg>
