<svg width="951" height="622" viewBox="0 0 951 622" fill="none" xmlns="http://www.w3.org/2000/svg">
<path d="M129 620.729C200.245 620.729 258 614.013 258 605.729C258 597.444 200.245 590.729 129 590.729C57.7553 590.729 0 597.444 0 605.729C0 614.013 57.7553 620.729 129 620.729Z" fill="#FF3877"/>
<path d="M821.5 621.229C892.745 621.229 950.5 614.513 950.5 606.229C950.5 597.944 892.745 591.229 821.5 591.229C750.255 591.229 692.5 597.944 692.5 606.229C692.5 614.513 750.255 621.229 821.5 621.229Z" fill="#FF3877"/>
<path d="M793.882 333.191H140.421C138.587 333.189 136.829 332.459 135.533 331.163C134.236 329.866 133.507 328.108 133.505 326.275V6.916C133.507 5.08242 134.236 3.32455 135.533 2.02802C136.829 0.731477 138.587 0.00214108 140.421 0H793.882C795.716 0.00215695 797.474 0.73151 798.77 2.02805C800.067 3.32458 800.796 5.08243 800.798 6.916V326.275C800.796 328.108 800.067 329.866 798.77 331.163C797.474 332.459 795.716 333.189 793.882 333.191ZM140.421 2.76643C139.321 2.76763 138.266 3.2052 137.488 3.98314C136.71 4.76107 136.273 5.81583 136.271 6.916V326.275C136.273 327.375 136.71 328.43 137.488 329.208C138.266 329.986 139.321 330.423 140.421 330.424H793.882C794.983 330.423 796.037 329.986 796.815 329.208C797.593 328.43 798.031 327.375 798.032 326.275V6.916C798.031 5.81583 797.593 4.76107 796.815 3.98314C796.037 3.2052 794.983 2.76764 793.882 2.76643H140.421Z" fill="#64B7CC"/>
<path d="M306.882 230.3H177.421C175.587 230.298 173.829 229.569 172.533 228.272C171.236 226.976 170.507 225.218 170.505 223.384V84.0253C170.507 82.1917 171.236 80.4339 172.533 79.1374C173.829 77.8408 175.587 77.1115 177.421 77.1094H306.882C308.716 77.1115 310.474 77.8409 311.77 79.1374C313.067 80.4339 313.796 82.1918 313.798 84.0253V223.384C313.796 225.218 313.067 226.975 311.77 228.272C310.474 229.569 308.716 230.298 306.882 230.3ZM177.421 79.8757C176.321 79.8769 175.266 80.3145 174.488 81.0925C173.71 81.8704 173.273 82.9251 173.271 84.0253V223.384C173.273 224.484 173.71 225.539 174.488 226.317C175.266 227.095 176.321 227.532 177.421 227.534H306.882C307.983 227.532 309.037 227.095 309.815 226.317C310.593 225.539 311.031 224.484 311.032 223.384V84.0253C311.031 82.9252 310.593 81.8704 309.815 81.0925C309.037 80.3145 307.983 79.8769 306.882 79.8757H177.421Z" fill="#64B7CC"/>
<path d="M531.882 230.3H402.421C400.587 230.298 398.829 229.569 397.533 228.272C396.236 226.975 395.507 225.218 395.505 223.384V84.0253C395.507 82.1918 396.236 80.4339 397.533 79.1374C398.829 77.8409 400.587 77.1115 402.421 77.1094H531.882C533.716 77.1115 535.474 77.8409 536.77 79.1374C538.067 80.4339 538.796 82.1918 538.798 84.0253V223.384C538.796 225.218 538.067 226.975 536.77 228.272C535.474 229.569 533.716 230.298 531.882 230.3ZM402.421 79.8757C401.321 79.8769 400.266 80.3145 399.488 81.0925C398.71 81.8704 398.272 82.9251 398.271 84.0253V223.384C398.272 224.484 398.71 225.539 399.488 226.317C400.266 227.095 401.321 227.532 402.421 227.534H531.882C532.983 227.532 534.037 227.095 534.815 226.317C535.593 225.539 536.031 224.484 536.032 223.384V84.0253C536.031 82.9252 535.593 81.8704 534.815 81.0925C534.037 80.3145 532.983 79.8769 531.882 79.8757H402.421Z" fill="#64B7CC"/>
<path d="M756.882 230.3H627.421C625.587 230.298 623.829 229.569 622.533 228.272C621.236 226.975 620.507 225.218 620.505 223.384V84.0253C620.507 82.1918 621.236 80.4339 622.533 79.1374C623.829 77.8409 625.587 77.1115 627.421 77.1094H756.882C758.716 77.1115 760.474 77.8409 761.77 79.1374C763.067 80.4339 763.796 82.1918 763.798 84.0253V223.384C763.796 225.218 763.067 226.975 761.77 228.272C760.474 229.569 758.716 230.298 756.882 230.3ZM627.421 79.8757C626.321 79.8769 625.266 80.3145 624.488 81.0925C623.71 81.8704 623.272 82.9251 623.271 84.0253V223.384C623.272 224.484 623.71 225.539 624.488 226.317C625.266 227.095 626.321 227.532 627.421 227.534H756.882C757.983 227.532 759.037 227.095 759.815 226.317C760.593 225.539 761.031 224.484 761.032 223.384V84.0253C761.031 82.9252 760.593 81.8704 759.815 81.0925C759.037 80.3145 757.983 79.8769 756.882 79.8757H627.421Z" fill="#64B7CC"/>
<path d="M660.151 246.082C659.886 246.082 659.632 246.188 659.444 246.375C659.257 246.563 659.152 246.817 659.151 247.082V255.082C659.152 255.347 659.257 255.601 659.444 255.789C659.632 255.976 659.886 256.082 660.151 256.082H724.151C724.417 256.082 724.671 255.976 724.858 255.789C725.046 255.601 725.151 255.347 725.151 255.082V247.082C725.151 246.817 725.046 246.563 724.858 246.375C724.671 246.188 724.417 246.082 724.151 246.082H660.151Z" fill="#64B7CC"/>
<path d="M435.151 246.082C434.886 246.082 434.632 246.188 434.444 246.375C434.257 246.563 434.152 246.817 434.151 247.082V255.082C434.152 255.347 434.257 255.601 434.444 255.789C434.632 255.976 434.886 256.082 435.151 256.082H499.151C499.417 256.082 499.671 255.976 499.858 255.789C500.046 255.601 500.151 255.347 500.151 255.082V247.082C500.151 246.817 500.046 246.563 499.858 246.375C499.671 246.188 499.417 246.082 499.151 246.082H435.151Z" fill="#64B7CC"/>
<path d="M210.151 246.082C209.886 246.082 209.632 246.188 209.444 246.375C209.257 246.563 209.152 246.817 209.151 247.082V255.082C209.152 255.347 209.257 255.601 209.444 255.789C209.632 255.976 209.886 256.082 210.151 256.082H274.151C274.417 256.082 274.671 255.976 274.858 255.789C275.046 255.601 275.151 255.347 275.151 255.082V247.082C275.151 246.817 275.046 246.563 274.858 246.375C274.671 246.188 274.417 246.082 274.151 246.082H210.151Z" fill="#64B7CC"/>
<path d="M177 377.729L174 390.729C174 390.729 175 420.729 167 417.729C159 414.729 161 388.729 161 388.729L168 375.729L177 377.729Z" fill="#FFB8B8"/>
<path d="M132.5 235.229C143.546 235.229 152.5 226.274 152.5 215.229C152.5 204.183 143.546 195.229 132.5 195.229C121.454 195.229 112.5 204.183 112.5 215.229C112.5 226.274 121.454 235.229 132.5 235.229Z" fill="#FFB8B8"/>
<path d="M117 220.729L115 249.729L140 252.729C140 252.729 140 228.729 142 225.729C144 222.729 117 220.729 117 220.729Z" fill="#FFB8B8"/>
<path d="M172.442 258.494L140.047 244.809C140.047 244.809 124.568 232.887 115.501 241.719L111.432 247.548C111.432 247.548 75.4445 261.579 75.4541 272.579L89.5022 327.567C89.5022 327.567 81.5293 358.574 93.5311 360.564L158.536 366.507C158.536 366.507 167.527 355.499 159.514 341.506L162.486 308.503L172.442 258.494Z" fill="#E6E6E6"/>
<path d="M150.442 259.513L172.441 258.494C172.441 258.494 179.443 260.488 184.46 279.484C189.476 298.479 190.504 329.478 190.504 329.478L178.553 385.489L163.551 383.502L169.504 329.497L159.472 293.506L150.442 259.513Z" fill="#E6E6E6"/>
<path d="M87.448 265.568L76.6045 268.956C76.6045 268.956 67.4629 282.586 67.469 289.586C67.4751 296.586 63.5215 349.589 63.5215 349.589L89.5591 392.567L97.5407 371.56L81.5171 344.574L94.4882 311.562L87.448 265.568Z" fill="#E6E6E6"/>
<path d="M161.5 364.228L89.6032 357.902C89.6032 357.902 82.5 403.228 83.5 421.228C84.5 439.228 85.5 467.228 85.5 467.228L77.5 589.228L108.5 585.228L112.5 484.228L125.5 429.228L140.5 499.228L150.5 589.228L177.5 586.228L168.5 477.228C168.5 477.228 176.5 379.228 161.5 364.228Z" fill="#451531"/>
<path d="M171.5 581.229L180.5 584.229C180.5 584.229 199.5 579.229 194.5 592.229C189.5 605.229 175.5 603.229 175.5 603.229C175.5 603.229 158.5 616.229 151.5 606.229L155.5 585.229L171.5 581.229Z" fill="#723C5C"/>
<path d="M98.5 581.229L107.5 584.229C107.5 584.229 126.5 579.229 121.5 592.229C116.5 605.229 102.5 603.229 102.5 603.229C102.5 603.229 85.5 616.229 78.5 606.229L82.5 585.229L98.5 581.229Z" fill="#723C5C"/>
<path d="M117 232.728C117 232.728 96.0001 217.728 107 199.728C114.631 187.241 130.444 188.229 139.414 190.006C141.831 190.452 144.103 191.479 146.034 192.998C147.965 194.518 149.498 196.484 150.5 198.728C152 202.228 152 205.728 146 205.728C134 205.728 140 214.728 140 214.728C140 214.728 132 216.728 134 223.728C136 230.728 117 232.728 117 232.728Z" fill="#F44E3F"/>
<path d="M835.822 583.953C835.822 583.953 813.645 585.659 815.92 593.62C818.194 601.581 835.822 600.443 835.822 600.443C835.822 600.443 849.469 599.306 856.861 601.581C864.253 603.855 872.783 601.581 873.351 597.6C873.92 593.62 869.371 590.777 869.371 590.777L866.528 585.09L835.822 583.953Z" fill="#723C5C"/>
<path d="M777.537 406.256L775.263 415.354C775.263 415.354 765.027 436.393 777.537 436.393C790.047 436.393 785.498 417.06 785.498 417.06L786.635 407.962L777.537 406.256Z" fill="#9F616A"/>
<path d="M887.283 398.863L889.557 407.961C889.557 407.961 899.793 429.001 887.283 429.001C874.773 429.001 879.322 409.667 879.322 409.667L878.185 400.569L887.283 398.863Z" fill="#9F616A"/>
<path d="M828.144 244.197C841.648 244.197 852.596 233.25 852.596 219.746C852.596 206.242 841.648 195.295 828.144 195.295C814.641 195.295 803.693 206.242 803.693 219.746C803.693 233.25 814.641 244.197 828.144 244.197Z" fill="#9F616A"/>
<path d="M820.753 238.51C820.753 238.51 823.596 251.588 821.89 257.843C820.184 264.098 857.145 256.706 857.145 256.706C857.145 256.706 844.067 235.098 844.635 234.529L820.753 238.51Z" fill="#9F616A"/>
<path d="M826.376 252.988C826.376 252.988 816.138 250.154 812.729 253.569C809.32 256.983 789.427 266.668 789.427 266.668L803.147 350.244L862.273 337.114L872.439 258.066C872.439 258.066 856.306 248.624 853.566 250.511C850.826 252.398 826.376 252.988 826.376 252.988Z" fill="#E6E6E6"/>
<path d="M793.976 267.233L791.246 265.771C791.246 265.771 780.898 267.813 781.474 275.773C782.05 283.734 784.363 328.085 784.363 328.085L775.335 408.269L791.828 411.098L808.259 343.985L793.976 267.233Z" fill="#E6E6E6"/>
<path d="M870.736 259.773L873.464 258.307C873.464 258.307 883.815 260.33 883.253 268.291C882.691 276.253 880.456 320.608 880.456 320.608L889.624 400.777L873.136 403.634L856.587 336.55L870.736 259.773Z" fill="#E6E6E6"/>
<path d="M803.694 342.001L801.42 376.687L794.027 446.06L804.831 589.924L842.361 591.061L830.988 454.021L842.361 406.825L879.535 405.448C879.535 405.448 882.165 351.099 861.126 334.04L803.694 342.001Z" fill="#451531"/>
<path d="M844.635 398.865L838.664 524.248L836.674 587.65L870.223 591.062L878.688 404.603L865.674 391.473L844.635 398.865Z" fill="#451531"/>
<path d="M838.949 187.334C838.949 187.334 816.772 184.491 810.517 195.295C810.517 195.295 808.811 203.256 803.125 206.099C797.439 208.942 804.262 218.609 805.968 221.452C807.674 224.295 812.223 240.785 807.105 244.766C801.988 248.746 816.203 260.119 816.203 260.119C816.203 260.119 823.027 269.217 817.341 276.04C811.654 282.864 824.733 285.139 824.733 285.139C824.733 285.139 821.89 304.472 827.007 299.354C827.007 299.354 829.282 343.139 850.89 315.845C872.498 288.55 881.596 275.472 872.498 264.668C863.4 253.864 870.223 244.197 870.223 244.197C870.223 244.197 873.066 238.511 866.811 229.981C860.557 221.452 860.557 187.334 838.949 187.334Z" fill="#F44E3F"/>
<path d="M806.822 587.365C806.822 587.365 784.645 589.071 786.92 597.032C789.194 604.993 806.822 603.856 806.822 603.856C806.822 603.856 820.469 602.718 827.861 604.993C835.253 607.267 843.783 604.993 844.351 601.012C844.92 597.032 840.371 594.189 840.371 594.189L837.528 588.503L806.822 587.365Z" fill="#723C5C"/>
<path d="M599.108 119.691L631.573 100.132L622.092 136.83L616.377 123.46L606.845 136.242L604.018 134.134L613.55 121.352L599.108 119.691Z" fill="#64B7CC"/>
<path d="M292 150.503C291.998 158.406 288.935 166.106 283.247 172.504C277.559 178.903 269.538 183.673 260.327 186.135C251.117 188.596 241.188 188.622 231.958 186.21C222.728 183.798 214.669 179.07 208.93 172.702C203.123 166.269 199.994 158.49 200 150.503C200 140.557 204.846 131.018 213.473 123.985C222.1 116.951 233.8 113 246 113C258.2 113 269.9 116.951 278.527 123.985C287.154 131.018 292 140.557 292 150.503Z" fill="#BE6F72"/>
<path d="M204.026 133.123C201.028 134.1 197.504 135.225 194.747 133.858C192.721 132.845 191.888 130.743 192.012 128.819C192.136 126.895 193.043 125.071 193.76 123.235C195.222 119.464 196.012 115.538 197.643 111.784C199.273 108.03 201.935 104.413 206.161 102.429C213.942 98.782 224.011 101.796 232.647 99.7767C236.303 98.93 239.484 97.2248 242.884 95.8867C246.284 94.5485 250.109 93.5183 253.78 94.2347C258.079 95.0459 261.253 97.9767 265.26 99.4688C269.647 101.103 274.898 100.99 278.89 103.175C281.72 104.727 283.504 107.231 285.091 109.688C290.168 117.585 294.176 125.903 297.047 134.497C298.195 137.574 298.851 140.758 298.999 143.97C299.036 148.08 297.661 152.106 296.301 156.073L294.107 162.349C293.296 164.717 292.462 167.086 290.926 169.229C289.391 171.372 287.022 173.178 284.089 173.8C280.433 174.564 276.177 173.084 274.583 170.313C273.603 168.596 273.647 166.63 273.596 164.741C273.515 161.042 273.026 157.356 272.134 153.728C271.68 151.91 271.073 150.022 269.545 148.648C267.571 146.872 264.426 146.28 261.501 146.238C258.079 146.203 254.328 146.955 252.332 149.199C250.73 151.01 250.452 153.556 248.325 154.972C247.379 155.559 246.254 155.929 245.071 156.043C242.657 156.287 240.212 155.868 238.126 154.854C236.041 153.839 234.436 152.288 233.568 150.448C232.895 148.885 232.566 146.943 230.738 146.209C229.788 145.824 228.654 145.895 227.638 145.646C224.523 144.882 223.704 141.685 223.419 139.062C223.09 135.989 224.355 129.92 219.638 129.713C214.556 129.488 208.699 131.862 204.026 133.123Z" fill="#3F3D56"/>
<path d="M215.378 173.841C213.747 174.474 211.961 175.214 211.322 176.574C211.072 177.107 211.028 177.692 210.8 178.236C209.765 180.644 205.724 181.117 203.637 183.034C202.696 184.003 202.063 185.142 201.793 186.353C200.399 191.127 200.85 196.13 203.086 200.692C203.734 202.137 204.733 203.465 206.025 204.596C209.757 207.66 216.193 207.601 220.844 205.513C225.495 203.425 228.705 199.763 231.431 196.048C232.876 194.178 234.085 192.196 235.038 190.133C235.877 188.034 236.474 185.877 236.824 183.691C238.455 175.166 240.585 165.713 239.851 157.071C237.647 156.958 233.437 156.834 231.49 157.946C229.051 159.342 229.726 162.158 228.845 164.199C226.758 169.109 220.704 171.7 215.378 173.841Z" fill="#3F3D56"/>
<path d="M217 174.994C214.321 175.132 209.521 172.643 206.836 172.769C205.008 170.089 203.393 167.311 202 164.453C203.429 162.731 205.729 162.311 209.207 164.453C212 166.103 215.857 171.809 217 174.994Z" fill="#3F3D56"/>
<path opacity="0.1" d="M293.501 164.509C291.951 166.624 289.58 168.461 286.635 169.083C282.964 169.848 278.691 168.366 277.09 165.593C276.106 163.875 276.15 161.908 276.099 160.017C276.018 156.316 275.526 152.627 274.63 148.996C274.175 147.177 273.566 145.287 272.031 143.912C270.049 142.135 266.891 141.542 263.954 141.501C260.518 141.465 256.751 142.218 254.747 144.463C253.139 146.277 252.86 148.824 250.723 150.241C249.773 150.829 248.644 151.199 247.456 151.313C245.032 151.557 242.576 151.138 240.483 150.123C238.389 149.107 236.777 147.555 235.906 145.714C235.23 144.149 234.9 142.206 233.064 141.471C232.11 141.086 230.971 141.157 229.951 140.908C226.823 140.144 226.001 136.944 225.714 134.319C225.384 131.244 226.654 125.17 221.918 124.963C216.852 124.738 210.97 127.114 206.278 128.376C203.268 129.354 199.729 130.479 196.961 129.111C194.927 128.097 194.09 125.994 194.215 124.068C194.339 122.142 195.25 120.317 195.969 118.481C197.203 115.376 197.945 112.152 199.075 109C198.544 109.892 198.071 110.806 197.658 111.738C196.028 115.476 195.265 119.441 193.767 123.197C193.032 125.034 192.137 126.859 192.012 128.785C191.887 130.711 192.746 132.814 194.758 133.827C197.526 135.196 201.065 134.07 204.076 133.093C208.768 131.83 214.649 129.454 219.715 129.68C224.451 129.887 223.181 135.96 223.511 139.036C223.798 141.661 224.62 144.86 227.748 145.625C228.769 145.874 229.907 145.803 230.861 146.188C232.697 146.922 233.064 148.866 233.703 150.43C234.574 152.272 236.186 153.824 238.28 154.839C240.374 155.854 242.829 156.273 245.253 156.03C246.442 155.916 247.57 155.545 248.52 154.957C250.657 153.541 250.936 150.993 252.544 149.18C254.548 146.922 258.315 146.17 261.751 146.217C264.688 146.253 267.882 146.845 269.828 148.629C271.363 150.004 271.972 151.894 272.428 153.713C273.323 157.344 273.815 161.032 273.896 164.734C273.947 166.624 273.896 168.591 274.887 170.31C276.481 173.083 280.761 174.564 284.433 173.8C287.37 173.178 289.749 171.341 291.298 169.226C292.477 167.498 293.385 165.659 294 163.75C293.838 164.023 293.677 164.266 293.501 164.509Z" fill="black"/>
<path d="M664.025 151.326L682.218 157.747C683.342 158.144 684.184 158.924 684.513 159.873L689.646 174.688C691.581 180.273 695.424 184.127 698.821 184.127L700.277 179.704L692.901 158.414C691.916 155.571 694.098 153.961 696.35 156.273L705.118 165.27L708.382 174.688C710.317 180.273 714.13 184.127 717.557 184.127L719.013 179.704L717.104 174.193C717.104 174.193 723.52 182.129 728.154 182.129L729.61 177.706L729.288 176.776C729.288 176.776 729.842 172.114 732.148 172.114L734.493 168.292V152.113C734.493 150.383 733.219 148.816 731.245 148.12L667.614 125.661C664.758 124.653 661.672 124.133 658.552 124.133H656.156L654.281 139.348C654.281 144.537 658.104 149.236 664.025 151.326Z" fill="#FFCDBE"/>
<path d="M717.557 184.127L716.263 188.058C712.752 187.558 709.025 183.46 706.507 176.191L703.244 166.774L694.476 157.777C693.87 157.155 692.638 157.654 692.901 158.414L692.464 157.153C691.479 154.31 695.973 152.457 698.226 154.769L706.994 163.766L710.257 173.184C712.192 178.769 714.841 182.48 717.557 184.127ZM720.854 171.185L716.899 159.77L706.417 149.004C704.996 147.544 702.08 148.217 701.844 150.06L701.719 151.037L713.149 162.778L717.104 174.193C719.622 181.461 723.349 185.56 726.86 186.059L728.154 182.129C725.438 180.482 722.789 176.77 720.854 171.185ZM728.493 154.562C728.493 153.446 727.671 152.435 726.397 151.985C726.397 151.985 723.183 150.851 721.396 150.22C715.721 148.217 711.267 144.375 709.853 140.569C709.853 143.585 711.11 146.514 713.424 148.891L723.049 158.778L729.288 176.776L732.148 172.115C730.941 170.749 728.493 166.897 728.493 158.116C728.493 156.931 728.493 154.562 728.493 154.562ZM652.406 140.852C652.406 146.041 656.229 150.74 662.15 152.83L682.119 159.878L687.771 176.191C690.289 183.46 694.016 187.558 697.527 188.058L698.821 184.127C696.105 182.48 693.456 178.769 691.521 173.184L686.388 158.369C686.059 157.42 685.217 156.64 684.093 156.243L665.9 149.822C659.979 147.732 656.156 143.033 656.156 137.844V124.133H653.812C653.036 124.133 652.406 124.638 652.406 125.261V140.852Z" fill="#EBAE9D"/>
<path d="M700.169 179.729C699.257 179.939 698.47 180.328 697.847 180.833L699.193 188.177C699.506 189.079 701.693 188.765 703.293 188.407L700.278 179.704C700.241 179.712 700.205 179.72 700.169 179.729Z" fill="#E2A5CF"/>
<path d="M700.131 187.424L697.847 180.833C696.53 181.901 695.946 183.492 696.483 185.041L697.528 188.057C698.209 190.025 700.789 190.349 702.867 189.886C703.348 189.778 703.63 189.377 703.496 188.991L703.293 188.407C701.693 188.764 700.443 188.327 700.131 187.424Z" fill="#D273B3"/>
<path d="M718.904 179.729C717.993 179.939 717.205 180.328 716.582 180.833L717.928 188.177C718.241 189.079 720.428 188.765 722.029 188.407L719.013 179.704C718.977 179.712 718.94 179.72 718.904 179.729Z" fill="#E2A5CF"/>
<path d="M718.866 187.424L716.582 180.833C715.265 181.901 714.681 183.492 715.218 185.041L716.263 188.057C716.945 190.025 719.524 190.349 721.602 189.886C722.084 189.778 722.365 189.377 722.231 188.991L722.029 188.407C720.428 188.764 719.179 188.327 718.866 187.424Z" fill="#D273B3"/>
<path d="M729.501 177.731C728.589 177.941 727.802 178.33 727.179 178.835L728.525 186.179C728.838 187.081 731.025 186.766 732.625 186.409L729.61 177.706C729.573 177.714 729.537 177.722 729.501 177.731Z" fill="#E2A5CF"/>
<path d="M729.463 185.426L727.179 178.835C725.862 179.903 725.278 181.494 725.815 183.043L726.86 186.059C727.541 188.027 730.121 188.351 732.199 187.888C732.681 187.78 732.962 187.379 732.828 186.993L732.625 186.409C731.025 186.766 729.775 186.329 729.463 185.426Z" fill="#D273B3"/>
<path d="M734.38 168.292C733.432 168.299 732.544 168.505 731.774 168.858L730.62 176.222C730.62 177.159 732.832 177.326 734.494 177.325V168.292C734.456 168.292 734.418 168.292 734.38 168.292Z" fill="#E2A5CF"/>
<path d="M731.774 175.7V168.858C730.148 169.604 729.055 171.012 729.055 172.62V175.75C729.055 177.793 731.431 178.659 733.589 178.659C734.089 178.658 734.493 178.332 734.493 177.932V177.326C732.832 177.326 731.774 176.636 731.774 175.7Z" fill="#D273B3"/>
<path d="M720.707 133.873C722.26 133.873 723.52 132.863 723.52 131.617C723.52 130.371 722.26 129.361 720.707 129.361C719.154 129.361 717.895 130.371 717.895 131.617C717.895 132.863 719.154 133.873 720.707 133.873Z" fill="#D3EFFD"/>
<path d="M671.139 175.076C672.692 175.076 673.951 174.066 673.951 172.82C673.951 171.574 672.692 170.564 671.139 170.564C669.585 170.564 668.326 171.574 668.326 172.82C668.326 174.066 669.585 175.076 671.139 175.076Z" fill="#D3EFFD"/>
<path d="M656.156 173.932C655.379 173.932 654.75 173.427 654.75 172.804V169.42H652.406C651.629 169.42 651 168.915 651 168.292C651 167.669 651.629 167.164 652.406 167.164H654.75V163.78C654.75 163.157 655.379 162.652 656.156 162.652C656.933 162.652 657.562 163.157 657.562 163.78V167.164H659.906C660.683 167.164 661.312 167.669 661.312 168.292C661.312 168.915 660.683 169.42 659.906 169.42H657.562V172.804C657.562 173.427 656.933 173.932 656.156 173.932Z" fill="#D3EFFD"/>
<path d="M673.95 153.582C673.173 153.582 672.544 153.077 672.544 152.454V149.07H670.2C669.423 149.07 668.794 148.565 668.794 147.942C668.794 147.319 669.423 146.814 670.2 146.814H672.544V143.431C672.544 142.808 673.173 142.303 673.95 142.303C674.727 142.303 675.356 142.808 675.356 143.431V146.814H677.7C678.477 146.814 679.106 147.319 679.106 147.942C679.106 148.565 678.477 149.07 677.7 149.07H675.356V152.454C675.356 153.077 674.727 153.582 673.95 153.582Z" fill="#FFEEE5"/>
<path d="M741.844 134.207C741.067 134.207 740.438 133.702 740.438 133.079V129.695H738.094C737.317 129.695 736.688 129.19 736.688 128.567C736.688 127.944 737.317 127.439 738.094 127.439H740.438V124.056C740.438 123.433 741.067 122.928 741.844 122.928C742.621 122.928 743.25 123.433 743.25 124.056V127.439H745.594C746.371 127.439 747 127.944 747 128.567C747 129.19 746.371 129.695 745.594 129.695H743.25V133.079C743.25 133.702 742.621 134.207 741.844 134.207Z" fill="#D3EFFD"/>
<path opacity="0.1" d="M530 173.518C530.008 169.401 529.3 165.341 527.936 161.681C526.572 158.021 524.591 154.869 522.161 152.49C522.228 151.601 522.262 150.707 522.264 149.813C522.264 135.672 514.091 124.208 504.007 124.208C500.902 124.203 497.849 125.311 495.146 127.423C488.009 120.93 478.692 117 468.499 117C451.914 117 437.648 127.406 431.319 142.326C430.968 142.297 430.614 142.281 430.257 142.281C420.175 142.281 412 153.745 412 167.887C411.993 172.883 413.037 177.774 415.005 181.964V181.964C415.005 194.687 423.689 205 434.396 205H512.077C520.488 205 527.306 196.902 527.306 186.912C529.075 182.873 530.007 178.24 530 173.518Z" fill="#64B7CC"/>
<path d="M498 127.006C497.233 127.45 496.463 127.896 495.749 128.483C495.424 128.748 495.113 129.042 494.779 129.284C494.42 129.546 494.038 129.745 493.66 129.957C492.615 130.543 491.601 131.226 490.623 132C490.708 130.498 490.548 128.866 489.894 127.695C489.798 127.521 489.691 127.359 489.574 127.211C489.111 126.622 488.455 126.469 488 125.954C488.277 125.286 488.891 124.679 489.31 124.169C489.761 123.621 490.23 123.1 490.716 122.608C491.687 121.624 492.721 120.762 493.804 120.033C494.492 119.571 495.211 119.157 495.97 119.016C496.066 118.986 496.165 118.998 496.256 119.051C496.374 119.14 496.417 119.341 496.445 119.522C496.587 120.423 496.659 121.348 496.777 122.256C496.835 122.723 496.913 123.185 497.012 123.638C497.139 124.175 497.285 124.702 497.45 125.219C497.634 125.814 497.818 126.41 498 127.006Z" fill="#FBBEBE"/>
<path d="M475 153.001C475 154.897 474.6 156.745 473.858 158.281C473.116 159.817 472.07 160.962 470.869 161.552C469.667 162.143 468.372 162.149 467.168 161.57C465.965 160.991 464.913 159.857 464.165 158.328C463.407 156.785 462.999 154.918 463 153.001C463 150.614 463.632 148.324 464.757 146.636C465.883 144.948 467.409 144 469 144C470.591 144 472.117 144.948 473.243 146.636C474.368 148.324 475 150.614 475 153.001Z" fill="#BE6F72"/>
<path d="M466.211 160.473C466.569 161.322 466.931 162.179 467.161 163.104C467.39 164.03 467.48 165.054 467.29 166C469.573 164.348 472.291 164.481 474.803 163.645C474.871 163.634 474.933 163.59 474.977 163.519C474.992 163.471 475 163.42 475 163.367C475 163.315 474.992 163.263 474.977 163.215C474.451 160.54 474.248 157.765 474.378 155L473.066 156.066C472.492 156.553 471.897 156.992 471.284 157.381C470.417 157.903 469.497 158.219 468.592 158.584C467.875 158.877 466.451 159.255 466 160.116C466.081 160.222 466.152 160.342 466.211 160.473V160.473Z" fill="#BE6F72"/>
<path d="M462.686 148.292C462.266 148.524 461.772 148.791 461.385 148.466C461.101 148.226 460.984 147.726 461.002 147.269C461.019 146.812 461.146 146.379 461.247 145.943C461.452 145.048 461.562 144.115 461.791 143.224C462.02 142.332 462.393 141.473 462.985 141.002C464.076 140.136 465.488 140.851 466.698 140.372C467.211 140.171 467.657 139.766 468.133 139.448C468.61 139.13 469.146 138.886 469.661 139.056C470.263 139.248 470.708 139.944 471.27 140.299C471.885 140.687 472.621 140.66 473.181 141.179C473.578 141.548 473.828 142.142 474.05 142.726C474.762 144.601 475.324 146.577 475.726 148.618C475.887 149.349 475.979 150.105 476 150.868C476.005 151.844 475.812 152.8 475.622 153.742L475.314 155.233C475.2 155.795 475.083 156.358 474.868 156.867C474.653 157.376 474.321 157.805 473.91 157.953C473.397 158.134 472.801 157.782 472.577 157.124C472.44 156.716 472.446 156.25 472.439 155.801C472.427 154.922 472.359 154.047 472.234 153.185C472.17 152.754 472.085 152.305 471.871 151.979C471.594 151.557 471.153 151.416 470.743 151.407C470.263 151.398 469.738 151.577 469.458 152.11C469.233 152.54 469.194 153.145 468.896 153.481C468.763 153.62 468.606 153.708 468.44 153.735C468.101 153.793 467.759 153.694 467.466 153.453C467.174 153.212 466.949 152.843 466.827 152.406C466.733 152.035 466.687 151.574 466.431 151.4C466.297 151.308 466.138 151.325 465.996 151.266C465.559 151.085 465.444 150.325 465.404 149.702C465.358 148.972 465.536 147.531 464.875 147.482C464.162 147.428 463.341 147.992 462.686 148.292Z" fill="#3F3D56"/>
<path d="M464.843 158.042C464.634 158.194 464.405 158.371 464.323 158.698C464.291 158.826 464.286 158.966 464.256 159.097C464.124 159.675 463.606 159.788 463.338 160.248C463.217 160.481 463.136 160.754 463.102 161.045C462.923 162.19 462.981 163.391 463.267 164.486C463.351 164.833 463.479 165.151 463.644 165.423C464.123 166.158 464.948 166.144 465.544 165.643C466.14 165.142 466.552 164.263 466.901 163.372C467.087 162.923 467.242 162.447 467.364 161.952C467.471 161.448 467.548 160.931 467.593 160.406C467.802 158.36 468.075 156.091 467.981 154.017C467.698 153.99 467.159 153.96 466.909 154.227C466.596 154.562 466.683 155.238 466.57 155.728C466.302 156.906 465.526 157.528 464.843 158.042Z" fill="#3F3D56"/>
<path d="M465 157.999C464.643 158.033 464.003 157.411 463.645 157.442C463.401 156.772 463.186 156.078 463 155.363C463.19 154.933 463.497 154.828 463.961 155.363C464.333 155.776 464.848 157.202 465 157.999Z" fill="#3F3D56"/>
<path d="M470.362 135.799C470.015 136.125 469.801 136.14 469.63 136.075C469.459 136.01 469.119 136.312 469.119 136.312C466.118 138.138 466 139 466 139L469.474 136.818C470.142 136.297 470.155 136.48 470.155 136.48C470.666 137.334 471.316 136.756 471.316 136.756C471.316 136.756 472.216 135.999 471.951 135.271C471.687 134.542 470.709 135.48 470.362 135.799ZM471.809 135.663C471.809 135.663 471.554 136.874 470.635 136.677C470.635 136.677 470.184 136.559 470.375 135.961C470.375 135.961 471.311 135.262 471.559 135.312C471.807 135.361 471.807 135.669 471.807 135.669L471.809 135.663Z" fill="#E8E8F0"/>
<path opacity="0.1" d="M470.362 135.799C470.015 136.125 469.801 136.14 469.63 136.075C469.459 136.01 469.119 136.312 469.119 136.312C466.118 138.138 466 139 466 139L469.474 136.818C470.142 136.297 470.155 136.48 470.155 136.48C470.666 137.334 471.316 136.756 471.316 136.756C471.316 136.756 472.216 135.999 471.951 135.271C471.687 134.542 470.709 135.48 470.362 135.799ZM471.809 135.663C471.809 135.663 471.554 136.874 470.635 136.677C470.635 136.677 470.184 136.559 470.375 135.961C470.375 135.961 471.311 135.262 471.559 135.312C471.807 135.361 471.807 135.669 471.807 135.669L471.809 135.663Z" fill="black"/>
<path d="M470.584 133.001C469.992 133.027 469.869 133.629 469.869 133.629C469.75 133.821 469.681 134.061 469.671 134.312C469.661 134.562 469.711 134.811 469.814 135.019L468.763 136.441C468.564 136.546 468.393 136.73 468.273 136.969C468.273 136.969 465.966 139.742 466 139.994C466 139.994 466.377 140.258 468.763 137.297L469.39 136.541C469.39 136.541 469.529 135.13 470.507 134.862C470.507 134.862 470.604 134.92 470.655 134.606C470.71 134.455 470.783 134.318 470.872 134.201C471.002 134.037 471.175 132.973 470.584 133.001ZM470.749 133.955C470.749 133.955 470.432 135.069 469.98 134.747C469.529 134.425 469.968 133.682 469.968 133.682C470.751 132.644 470.749 133.955 470.749 133.955Z" fill="#E8E8F0"/>
<path d="M479.602 130.535C479.213 130.252 478.81 130.011 478.395 129.811C477.843 129.596 477.276 129.462 476.704 129.413C474.895 129.176 473.081 129.038 471.262 129C470.941 129 470.612 128.99 470.308 129.142C470.035 129.286 469.789 129.509 469.585 129.796C469.231 130.262 468.949 130.823 468.758 131.444C468.697 131.6 468.678 131.781 468.707 131.954C468.748 132.119 468.913 132.228 469.007 132.112C468.767 132.379 468.59 132.739 468.5 133.146C468.41 133.554 468.411 133.989 468.503 134.395C468.36 134.498 468.238 134.651 468.15 134.838C468.062 135.025 468.01 135.24 468 135.463C468.751 135.654 469.524 135.602 470.258 135.312C470.039 135.235 469.813 135.518 469.799 135.828C469.801 135.984 469.834 136.137 469.894 136.268C469.954 136.4 470.04 136.507 470.141 136.576C470.346 136.709 470.572 136.771 470.798 136.755C471.673 136.755 472.524 136.346 473.397 136.294C474.064 136.253 474.752 136.419 475.39 136.151C476.129 135.835 476.789 134.94 477.552 135.127C478.16 135.276 478.557 136.055 478.953 136.707C479.588 137.747 480.372 138.59 481.149 139.425C481.749 140.069 482.375 140.729 483.117 140.947C483.34 141.03 483.575 141.015 483.791 140.903C483.971 140.77 484.122 140.574 484.229 140.334C485.029 138.768 485.03 136.796 484.984 134.961C484.96 134.023 484.811 133.897 484.181 133.508C483.45 133.055 482.721 132.592 481.995 132.117C481.194 131.601 480.396 131.074 479.602 130.535Z" fill="#FBBEBE"/>
<path d="M487.924 133.823C487.819 133.932 487.707 134.023 487.592 134.095C487.398 134.175 487.201 134.032 487.013 133.921C486.217 133.461 485.333 133.57 484.563 133C484.816 135.514 484.485 138.1 483.645 140.193C483.485 140.586 483.276 140.988 483 141.019C483.123 141.675 483.501 142.071 483.86 142.366C484.434 142.837 485.033 143.204 485.65 143.462C485.827 143.534 486.043 143.569 486.145 143.308C486.207 143.155 486.234 142.892 486.342 142.901C486.509 143.209 486.454 143.838 486.684 143.976C486.755 144.008 486.83 144.008 486.902 143.976L487.415 143.823C487.569 143.8 487.717 143.711 487.846 143.565C487.928 143.442 487.994 143.294 488.044 143.129C488.618 141.429 488.839 139.462 488.928 137.52C488.971 136.556 489.025 135.533 488.987 134.566C488.952 133.737 488.34 133.487 487.924 133.823Z" fill="#E8E8F0"/>
<path opacity="0.1" d="M487.924 133.823C487.819 133.932 487.707 134.023 487.592 134.095C487.398 134.175 487.201 134.032 487.013 133.921C486.217 133.461 485.333 133.57 484.563 133C484.816 135.514 484.485 138.1 483.645 140.193C483.485 140.586 483.276 140.988 483 141.019C483.123 141.675 483.501 142.071 483.86 142.366C484.434 142.837 485.033 143.204 485.65 143.462C485.827 143.534 486.043 143.569 486.145 143.308C486.207 143.155 486.234 142.892 486.342 142.901C486.509 143.209 486.454 143.838 486.684 143.976C486.755 144.008 486.83 144.008 486.902 143.976L487.415 143.823C487.569 143.8 487.717 143.711 487.846 143.565C487.928 143.442 487.994 143.294 488.044 143.129C488.618 141.429 488.839 139.462 488.928 137.52C488.971 136.556 489.025 135.533 488.987 134.566C488.952 133.737 488.34 133.487 487.924 133.823Z" fill="black"/>
<path d="M454.272 180.371C454.012 179.823 453.744 179.242 453.359 178.953C453.137 178.806 452.903 178.712 452.665 178.674C451.38 178.375 450.093 178.063 448.796 178.005C448.373 177.985 447.918 178.005 447.573 178.411C447.177 178.873 447.025 179.725 447.003 180.52C446.979 181.467 447.094 182.409 447.337 183.269C447.581 184.128 447.946 184.88 448.402 185.462C449.178 186.432 450.159 186.838 451.115 187.158C451.618 187.327 452.124 187.478 452.632 187.607C453.14 187.736 453.656 187.838 454.147 188.095C455.195 188.646 456.12 189.892 457.219 189.995C457.271 190.008 457.324 189.994 457.37 189.953C457.418 189.89 457.451 189.799 457.461 189.699C457.703 188.299 458.542 184.946 457.461 183.967C456.896 183.457 456.269 183.434 455.715 182.786C455.162 182.138 454.692 181.256 454.272 180.371Z" fill="#BE6F72"/>
<path d="M444.492 188.622C443.909 187.635 443.103 187.112 442.679 185.856C442.493 185.303 442.398 184.654 442.305 184.016L442.029 182.091C442.008 181.973 441.998 181.848 442 181.723C442.021 181.321 442.265 181.131 442.47 181.068C443.519 180.751 444.611 181.572 445.396 182.96C446.182 184.349 446.686 186.265 446.982 188.251C447.003 188.352 447.006 188.463 446.991 188.568C446.965 188.661 446.925 188.736 446.875 188.781C446.496 189.217 445.987 189.854 445.544 189.987C445.101 190.121 444.808 189.149 444.492 188.622Z" fill="#BE6F72"/>
<path d="M479.669 181.099L483.874 183.476C484.273 183.702 484.601 184.122 484.799 184.661C484.997 185.199 485.051 185.821 484.951 186.411L481.823 205H474L475.362 183.851C475.362 183.851 478.336 180.375 479.669 181.099Z" fill="#3F3D56"/>
<path d="M483.935 179.419C483.856 179.654 483.74 179.886 483.758 180.142C483.768 180.295 483.826 180.439 483.818 180.591C483.801 180.888 483.55 181.053 483.334 181.056C483.117 181.059 482.899 180.963 482.685 181.014C482.334 181.096 482.096 181.539 481.793 181.795C481.369 182.151 480.84 182.13 480.347 182.191C479.314 182.318 478.337 182.849 477.402 183.453C476.767 183.863 476.092 184.389 475.853 185.292C475.509 186.565 476.176 187.907 476.324 189.253C476.363 189.707 476.373 190.164 476.353 190.62C476.244 195.377 476.057 200.188 475.859 204.939L438 205L439.864 200.525C441.682 196.16 443.548 191.714 446.29 188.376C446.697 187.873 447.154 187.452 447.648 187.126L449.846 189.814C450.022 190.054 450.227 190.251 450.451 190.398C450.864 190.629 451.326 190.497 451.77 190.517C452.622 190.555 453.4 191.151 454.14 191.732C454.682 192.135 455.204 192.589 455.701 193.089C455.993 193.395 456.413 193.586 456.717 193.867L456.645 188.788C456.638 188.33 456.633 187.86 456.733 187.423C456.927 186.574 457.482 185.974 457.749 185.166C457.869 184.803 457.928 184.406 458.029 184.034C458.173 183.556 458.35 183.099 458.56 182.669L459.931 179.653C460.27 178.909 460.607 178.164 460.975 177.447C462.583 174.305 464.748 171.788 466.854 169.263C466.805 168.543 466.926 167.821 467.2 167.203C467.308 166.997 467.397 166.774 467.466 166.539C467.511 166.26 467.524 165.974 467.505 165.69C467.505 165.618 467.505 165.549 467.505 165.472C467.527 165.01 467.669 164.573 467.903 164.239C468.145 163.895 468.468 163.685 468.786 163.49C470.433 162.482 472.144 161.687 473.899 161.116C474.179 161.026 474.475 160.941 474.751 161.055C474.834 161.425 475.12 161.555 475.405 161.648L475.587 161.706C476.071 161.849 476.523 162.151 476.903 162.586C477.303 163.064 477.578 163.704 477.845 164.333C479.856 169.063 480.782 175.268 483.893 178.705C484.044 178.867 484.013 179.193 483.935 179.419Z" fill="#6C63FF"/>
<path opacity="0.1" d="M497 121.117C495.866 124.08 493.632 127 490.715 127C490.477 127 490.239 126.986 490.002 126.958C489.9 126.799 489.787 126.651 489.664 126.515C489.175 125.976 488.481 125.836 488 125.364C488.293 124.753 488.942 124.198 489.384 123.731C489.862 123.229 490.357 122.753 490.871 122.303C491.897 121.401 492.99 120.613 494.136 119.945C494.863 119.522 495.622 119.144 496.425 119.014C496.526 118.987 496.631 118.999 496.727 119.046C496.852 119.128 496.897 119.312 496.927 119.477C497.076 120.296 496.875 120.286 497 121.117Z" fill="black"/>
<path d="M490 127C493.866 127 497 122.747 497 117.5C497 112.253 493.866 108 490 108C486.134 108 483 112.253 483 117.5C483 122.747 486.134 127 490 127Z" fill="#FBBEBE"/>
<path d="M503.744 149.227C503.633 150.373 503.44 151.502 503.168 152.595C503.067 152.993 502.942 153.38 502.814 153.763C502.059 155.998 501.645 158.415 501.447 160.873C501.432 161.066 501.406 161.258 501.371 161.446C501.222 162.239 500.908 162.947 500.668 163.693C500.423 164.499 500.22 165.328 500.06 166.175C500.002 166.387 499.983 166.616 500.003 166.842C500.041 167.081 500.164 167.267 500.252 167.483C500.701 168.566 500.182 169.89 500.006 171.116C499.947 171.541 499.92 172.002 499.723 172.334C499.554 172.617 499.293 172.747 499.045 172.866C495.507 174.547 491.886 175.864 488.211 176.808C487.663 176.949 487.096 177.081 486.552 176.939C486.008 176.798 485.466 176.328 485.28 175.594C485.172 175.169 485.191 174.708 485.2 174.258C485.22 173.312 485.2 172.361 485.163 171.408C485.046 168.272 484.779 165.124 485.366 162.12C485.541 161.234 485.788 160.379 485.987 159.502C486.375 157.794 486.475 156.027 486.572 154.254C486.653 152.793 486.731 151.326 486.965 149.885C487.139 148.81 487.023 147.693 487.013 146.592C486.993 144.071 487.523 141.602 488.533 139.513C488.708 139.152 488.901 138.795 488.993 138.38C489.122 137.786 489.033 137.147 488.975 136.53C488.827 134.956 488.886 133.357 489.151 131.814C489.234 131.236 489.392 130.685 489.618 130.187C489.87 129.673 490.232 129.285 490.594 128.92C492.693 126.804 495.01 125.146 497.465 124C497.691 124.799 497.908 125.732 498.081 126.548C498.105 126.659 498.121 126.799 498.056 126.87C497.991 126.941 497.924 126.902 497.853 126.905C497.78 126.916 497.711 126.958 497.655 127.025C497.599 127.092 497.559 127.181 497.54 127.28C497.505 127.481 497.519 127.692 497.579 127.881C497.717 128.376 498.014 128.746 498.299 129.095L499.736 130.847C499.908 131.072 500.095 131.272 500.296 131.444C500.476 131.586 500.673 131.686 500.858 131.817C501.602 132.342 502.116 133.365 502.402 134.458C502.689 135.551 502.559 136.865 502.933 137.903C504.175 141.343 504.165 145.414 503.744 149.227Z" fill="#E8E8F0"/>
<path d="M503.642 185C504.131 187.535 504.119 190.186 503.606 192.714C503.514 193.165 503.407 193.632 503.479 194.089C503.521 194.348 503.62 194.592 503.643 194.856C503.653 195.097 503.632 195.339 503.583 195.571C503.078 198.636 503.259 201.821 503.462 204.949C503.376 204.949 503.349 205 503.258 205H501.069C501.03 204.178 500.235 203.562 499.846 202.907C499.47 202.265 499.21 201.523 499.085 200.736C498.96 199.948 498.973 199.135 499.123 198.355C499.463 196.603 500.468 195.204 500.982 193.53C501.55 191.688 501.501 189.602 502.105 187.78C502.451 186.728 503.099 185.906 503.642 185Z" fill="#3F3D56"/>
<path opacity="0.1" d="M503.642 185C504.131 187.535 504.119 190.186 503.606 192.714C503.514 193.165 503.407 193.632 503.479 194.089C503.521 194.348 503.62 194.592 503.643 194.856C503.653 195.097 503.632 195.339 503.583 195.571C503.078 198.636 503.259 201.821 503.462 204.949C503.376 204.949 503.349 205 503.258 205H501.069C501.03 204.178 500.235 203.562 499.846 202.907C499.47 202.265 499.21 201.523 499.085 200.736C498.96 199.948 498.973 199.135 499.123 198.355C499.463 196.603 500.468 195.204 500.982 193.53C501.55 191.688 501.501 189.602 502.105 187.78C502.451 186.728 503.099 185.906 503.642 185Z" fill="black"/>
<path d="M498.695 172.071C496.971 171.701 495.301 172.865 493.637 173.571C491.093 174.65 488.293 174.716 485.944 176.41C485.734 176.545 485.544 176.729 485.382 176.954C485.191 177.27 485.071 177.653 485.036 178.056C484.931 178.95 485.06 179.864 485.401 180.644C485.547 180.977 485.731 181.283 485.845 181.639C486.114 182.485 485.934 183.461 485.888 184.386C485.783 186.452 486.38 188.463 486.5 190.527C486.572 191.744 486.478 192.988 486.692 194.175C486.825 194.919 487.077 195.622 487.181 196.375C487.285 197.128 487.24 197.864 487.275 198.608C487.373 200.742 488.098 202.814 487.921 204.939L501.6 205C501.093 202.635 500.671 200.19 501.131 197.809C501.29 197.056 501.489 196.318 501.724 195.602C502.489 193.124 503.275 190.64 503.697 188.02C504.119 185.4 504.157 182.603 503.443 180.098C502.647 177.306 500.956 174.984 500.588 172.037C499.956 171.924 499.327 172.206 498.695 172.071Z" fill="#3F3D56"/>
<path d="M484.844 112.489C484.713 112.119 484.342 111.875 484.092 112.109C483.842 112.344 483.875 112.866 483.813 113.287C483.695 114.114 483.085 114.678 482.46 114.809C482.168 114.873 481.842 114.847 481.615 114.592C481.469 114.404 481.362 114.168 481.303 113.907C480.679 111.664 481.059 109.045 482.08 107.088C482.297 106.649 482.566 106.262 482.877 105.941C483.737 105.1 484.888 105.1 485.953 105.145C486.169 105.176 486.388 105.142 486.593 105.045C486.749 104.934 486.892 104.793 487.017 104.625C488.026 103.43 489.419 102.928 490.764 103.008C492.108 103.088 493.402 103.709 494.597 104.535C495.168 104.929 495.728 105.376 496.175 105.998C497.25 107.489 497.512 109.697 497.724 111.755C497.951 113.975 498.176 116.258 497.794 118.44C497.578 119.677 497.17 120.885 497.218 122.154C496.354 122.487 495.475 122.748 494.587 122.938C494.171 123.026 493.69 123.078 493.385 122.681C493.256 122.495 493.162 122.27 493.11 122.025C492.781 120.711 492.891 119.211 492.392 117.997C492.184 117.502 491.886 117.086 491.526 116.788C491.167 116.489 490.757 116.318 490.335 116.29C490.008 116.274 489.637 116.382 489.469 116.76C489.405 116.944 489.355 117.138 489.321 117.337C489.09 118.275 488.144 118.739 487.521 118.216C487.209 117.953 486.996 117.515 486.713 117.187C486.356 116.774 485.897 116.56 485.495 116.227C484.157 115.109 485.363 113.954 484.844 112.489Z" fill="#3F3D56"/>
<path d="M475 161.554C474.428 161.766 473.908 162.149 473.352 162.418C472.373 162.89 471.297 163 470.27 163.302C469.283 163.608 468.332 164.051 467.438 164.621C467.372 164.662 467.165 164.862 467 165C467 164.938 467 164.879 467 164.814C467.023 164.419 467.166 164.046 467.403 163.761C467.648 163.467 467.975 163.289 468.297 163.122C469.963 162.262 471.696 161.585 473.473 161.099C473.756 161.022 474.056 160.949 474.334 161.047C474.423 161.362 474.712 161.474 475 161.554Z" fill="#3F3D56"/>
<path opacity="0.1" d="M460.117 197.827C461.059 199.589 461.904 201.514 463 203C461.735 200.181 459.92 198.3 458.28 196.174C457.947 195.743 457.282 195.13 457.081 194.506C456.763 193.528 457.465 194.222 457.757 194.488C458.667 195.318 459.43 196.543 460.117 197.827Z" fill="black"/>
<path opacity="0.1" d="M500.983 147.537C500.927 148.149 500.748 148.731 500.567 149.301C500.122 150.72 499.645 152.125 498.974 153.383C498.512 154.25 497.962 155.033 497.479 155.88C496.984 156.779 496.53 157.713 496.119 158.679C495.361 160.392 494.622 162.12 493.903 163.863C493.56 164.697 493.218 165.538 492.775 166.291C492.464 166.8 492.13 167.285 491.775 167.744C490.997 168.791 490.198 169.759 489.502 170.893C489.158 171.461 488.583 171.679 488.046 171.872C487.867 171.949 487.68 171.992 487.491 172C487.3 171.983 487.113 171.93 486.935 171.843C486.336 171.609 485.749 171.325 485.179 170.991C485.05 167.849 484.758 164.695 485.401 161.685C485.594 160.797 485.865 159.94 486.083 159.062C486.508 157.349 486.618 155.579 486.725 153.803C486.857 153.447 486.998 153.093 487.135 152.75C488.062 150.412 488.843 147.837 488.602 145.231C488.541 144.761 488.498 144.288 488.474 143.813C488.476 143.23 488.553 142.651 488.702 142.1C489.035 140.799 489.584 139.605 490.313 138.6C491.043 137.596 491.934 136.806 492.925 136.284C493.238 136.097 493.58 136 493.925 136C494.37 136.03 494.795 136.325 495.229 136.217C496.697 137.041 497.885 138.449 498.773 140.154C499.661 141.859 499.71 144.137 500.675 145.772C500.961 146.268 501.039 146.925 500.983 147.537Z" fill="black"/>
<path d="M469.982 140.137L469.944 140L468.486 141.131L468.243 141.32L468 141.508L470.056 149L470.298 148.811L470.542 148.622L472 147.491L471.963 147.356L470.505 148.487L470.467 148.351L471.925 147.22L471.888 147.083L470.43 148.214L470.392 148.078L471.85 146.946L471.814 146.81L470.355 147.941L470.317 147.806L471.776 146.675L471.739 146.538L470.28 147.67L470.242 147.533L471.701 146.402L471.664 146.266L470.206 147.396L470.168 147.26L471.626 146.129L471.589 145.994L470.131 147.125L470.093 146.988L471.551 145.858L471.514 145.721L470.056 146.852L470.018 146.716L471.477 145.585L471.44 145.448L469.981 146.579L469.943 146.444L471.402 145.312L471.365 145.177L469.906 146.308L469.869 146.171L471.327 145.04L471.29 144.904L469.832 146.035L469.794 145.898L471.252 144.767L471.215 144.63L469.757 145.762L469.719 145.627L471.177 144.496L471.141 144.359L469.682 145.49L469.644 145.354L471.103 144.222L471.066 144.086L469.607 145.217L469.57 145.08L471.028 143.951L470.991 143.814L469.533 144.946L469.495 144.809L470.953 143.678L470.916 143.542L469.458 144.672L469.42 144.536L470.878 143.405L470.842 143.269L469.383 144.401L469.346 144.264L470.804 143.134L470.767 142.997L469.308 144.128L469.271 143.992L470.729 142.861L470.692 142.724L469.234 143.855L469.197 143.719L470.654 142.588L470.617 142.453L469.159 143.584L469.122 143.447L470.58 142.316L470.542 142.179L469.084 143.311L469.047 143.174L470.505 142.043L470.468 141.908L469.009 143.038L468.972 142.903L470.431 141.771L470.393 141.635L468.934 142.766L468.898 142.629L470.356 141.499L470.318 141.362L468.86 142.493L468.823 142.356L470.281 141.226L470.243 141.091L468.785 142.221L468.748 142.085L470.206 140.954L470.169 140.818L468.71 141.949L468.673 141.812L470.132 140.681L470.094 140.545L468.635 141.676L468.598 141.541L470.057 140.41L470.019 140.273L468.56 141.404L468.524 141.268L469.982 140.137Z" fill="black"/>
<path opacity="0.1" d="M475.927 155.664C475.699 156.184 475.35 156.637 474.917 156.79C474.377 156.978 473.749 156.613 473.513 155.931C473.369 155.508 473.375 155.023 473.367 154.558C473.356 153.647 473.283 152.739 473.152 151.845C473.085 151.397 472.995 150.932 472.769 150.594C472.478 150.156 472.013 150.01 471.582 150C471.076 149.991 470.522 150.177 470.227 150.729C469.991 151.176 469.95 151.803 469.636 152.152C469.496 152.296 469.33 152.387 469.155 152.416C468.799 152.476 468.438 152.372 468.13 152.122C467.822 151.873 467.585 151.49 467.457 151.037C467.357 150.652 467.309 150.174 467.039 149.993C466.898 149.898 466.731 149.916 466.581 149.854C466.121 149.666 466 148.879 465.958 148.232C465.909 147.475 466.096 145.98 465.4 145.929C464.655 145.874 463.79 146.459 463.1 146.769C462.657 147.01 462.137 147.287 461.73 146.95C461.43 146.701 461.307 146.183 461.326 145.709C461.344 145.235 461.478 144.786 461.584 144.334C461.765 143.569 461.874 142.776 462.04 142C461.962 142.22 461.893 142.444 461.832 142.674C461.592 143.594 461.48 144.57 461.26 145.495C461.152 145.947 461.02 146.396 461.002 146.87C460.983 147.344 461.11 147.862 461.406 148.111C461.813 148.448 462.333 148.171 462.776 147.93C463.466 147.62 464.331 147.035 465.076 147.09C465.772 147.141 465.585 148.636 465.634 149.393C465.676 150.04 465.797 150.827 466.257 151.015C466.407 151.077 466.575 151.059 466.715 151.154C466.985 151.335 467.039 151.813 467.133 152.198C467.261 152.651 467.498 153.034 467.806 153.283C468.114 153.533 468.475 153.637 468.831 153.577C469.006 153.548 469.172 153.457 469.312 153.313C469.626 152.964 469.667 152.337 469.904 151.89C470.198 151.335 470.752 151.15 471.258 151.161C471.689 151.17 472.159 151.316 472.445 151.755C472.671 152.093 472.761 152.558 472.828 153.006C472.959 153.9 473.032 154.808 473.044 155.719C473.051 156.184 473.044 156.669 473.189 157.092C473.424 157.774 474.053 158.139 474.593 157.951C475.025 157.798 475.375 157.345 475.603 156.825C475.776 156.4 475.91 155.947 476 155.477C475.976 155.544 475.952 155.604 475.927 155.664Z" fill="black"/>
<path d="M481.184 155.08C480.278 153.963 479.46 152.727 478.647 151.494C477.868 150.315 477.087 149.13 476.459 147.811C476.071 146.996 475.724 146.106 475.128 145.535C474.675 145.098 474.121 144.895 473.621 144.562C473.261 144.322 472.929 144.018 472.573 143.77C471.798 143.231 470.925 142.967 470.044 143.003C469.678 143.019 469.263 143.128 469.075 143.533C469.01 143.671 468.98 143.832 468.914 143.969C468.711 144.405 468.223 144.528 468.057 144.986C467.776 145.757 468.623 146.465 468.676 147.313C468.701 147.737 468.519 148.133 468.466 148.553C468.375 149.28 468.668 149.973 468.951 150.607C469.557 151.965 470.294 153.453 471.484 153.794C471.905 153.915 472.35 153.876 472.761 154.047C473.093 154.208 473.399 154.443 473.667 154.741C474.785 155.872 475.771 157.205 476.593 158.697C476.976 159.39 477.322 160.115 477.708 160.804C478.937 162.987 480.55 164.767 482.415 166L483.804 160.33C484.018 159.457 484.187 158.261 483.578 157.58C482.815 156.698 481.935 156.001 481.184 155.08Z" fill="#FBBEBE"/>
<path d="M495.494 136.217C495.081 136.324 494.671 136.03 494.251 136C493.922 136 493.596 136.097 493.298 136.284C492.352 136.806 491.503 137.597 490.808 138.602C490.113 139.606 489.589 140.801 489.272 142.103C489.131 142.657 489.059 143.237 489.058 143.822C489.064 144.297 489.138 144.765 489.179 145.241C489.409 147.844 488.664 150.421 487.782 152.763C487.293 154.056 486.743 155.42 486.858 156.861C486.873 157.054 486.896 157.271 486.808 157.428C486.702 157.616 486.473 157.626 486.375 157.823C486.276 158.02 486.366 158.318 486.288 158.541C486.182 158.856 485.837 158.818 485.59 158.706C484.913 158.399 484.286 157.922 483.743 157.301C482.863 157.989 481.921 158.809 481.632 160.118C481.564 160.452 481.517 160.793 481.491 161.137L481.036 166.218C480.976 166.891 480.946 167.68 481.325 168.128C481.979 168.903 483.143 167.9 483.843 168.601C484.022 168.78 484.138 169.046 484.267 169.289C485.03 170.693 486.345 171.31 487.578 171.844C487.748 171.93 487.927 171.983 488.108 172C488.289 171.993 488.467 171.95 488.638 171.872C489.151 171.679 489.697 171.455 490.026 170.894C490.69 169.759 491.452 168.791 492.194 167.744C492.532 167.283 492.85 166.798 493.147 166.29C493.571 165.535 493.895 164.694 494.222 163.859C494.907 162.116 495.61 160.387 496.333 158.673C496.729 157.711 497.166 156.78 497.641 155.886C498.102 155.034 498.626 154.253 499.066 153.388C499.702 152.127 500.159 150.716 500.585 149.304C500.757 148.737 500.928 148.15 500.983 147.539C501.038 146.927 500.964 146.27 500.686 145.777C499.766 144.141 499.72 141.863 498.874 140.157C498.027 138.451 496.895 137.04 495.494 136.217Z" fill="#E8E8F0"/>
<path d="M470.353 141.16C470.337 141.17 470.322 141.184 470.312 141.2C470.301 141.217 470.294 141.235 470.292 141.254C470.292 141.289 470.321 141.316 470.337 141.347C470.38 141.436 470.31 141.539 470.23 141.6C470.15 141.661 470.052 141.709 470.009 141.798C470.002 141.81 469.999 141.824 470 141.837C470.005 141.856 470.016 141.872 470.032 141.883C470.079 141.936 470.14 141.975 470.209 141.996C470.318 142.018 470.423 141.948 470.516 141.89C470.617 141.828 470.725 141.777 470.837 141.737C470.872 141.727 470.905 141.711 470.934 141.691C470.97 141.656 470.992 141.61 470.996 141.561C471.021 141.387 470.925 141.219 470.815 141.075C470.683 140.904 470.466 141.066 470.353 141.16Z" fill="#3F3D56"/>
<path d="M454.467 182.964L443.761 175.408C443.682 175.353 443.587 175.396 443.547 175.504L440.818 182.895C440.778 183.003 440.809 183.136 440.888 183.191L451.594 190.746C451.672 190.801 451.768 190.758 451.808 190.65L454.537 183.259C454.576 183.151 454.545 183.019 454.467 182.964Z" fill="#3F3D56"/>
<path d="M453.483 183.154L444.246 176.636L441.902 182.984L451.139 189.502L453.483 183.154Z" fill="#E8E8F0"/>
<path d="M442.87 179.669C442.898 179.593 442.853 179.483 442.769 179.424C442.686 179.365 442.595 179.379 442.567 179.455C442.539 179.532 442.583 179.642 442.667 179.701C442.751 179.76 442.842 179.746 442.87 179.669Z" fill="#E6E8EC"/>
<path d="M452.97 186.815C453.017 186.689 452.942 186.508 452.804 186.411C452.666 186.314 452.517 186.337 452.471 186.462C452.424 186.588 452.499 186.768 452.637 186.866C452.775 186.963 452.924 186.94 452.97 186.815Z" fill="#E6E8EC"/>
<g opacity="0.1">
<path opacity="0.1" d="M497.956 117.702C497.741 118.959 497.337 120.189 497.384 121.479C496.527 121.817 495.657 122.084 494.777 122.276C494.364 122.366 493.887 122.419 493.585 122.015C493.457 121.826 493.364 121.597 493.313 121.348C492.986 120.012 493.095 118.486 492.601 117.251C492.395 116.747 492.099 116.324 491.743 116.02C491.386 115.717 490.98 115.543 490.562 115.514C490.238 115.498 489.87 115.608 489.704 115.992C489.64 116.18 489.591 116.377 489.557 116.579C489.328 117.533 488.391 118.005 487.773 117.473C487.464 117.205 487.252 116.76 486.973 116.427C486.618 116.006 486.163 115.789 485.765 115.45C485.406 115.145 485.233 114.837 485.16 114.519C485.069 115.204 485.044 115.835 485.765 116.448C486.163 116.787 486.618 117.004 486.973 117.425C487.252 117.756 487.459 118.204 487.773 118.472C488.392 119.001 489.328 118.532 489.557 117.577C489.591 117.375 489.64 117.178 489.704 116.99C489.87 116.606 490.238 116.497 490.562 116.512C490.98 116.541 491.386 116.715 491.743 117.019C492.099 117.322 492.395 117.746 492.601 118.249C493.095 119.484 492.986 121.01 493.313 122.346C493.365 122.598 493.46 122.828 493.589 123.018C493.892 123.417 494.369 123.369 494.781 123.279C495.661 123.086 496.531 122.82 497.388 122.482C497.338 121.191 497.745 119.962 497.96 118.704C498.125 117.675 498.191 116.62 498.157 115.567C498.14 116.286 498.073 117.001 497.956 117.702V117.702Z" fill="black"/>
<path opacity="0.1" d="M485.222 113.051C485.298 112.582 485.261 112.092 485.119 111.654C484.989 111.277 484.621 111.029 484.373 111.267C484.126 111.506 484.161 112.038 484.1 112.465C483.982 113.307 483.378 113.88 482.759 114.014C482.469 114.078 482.146 114.053 481.921 113.793C481.777 113.601 481.67 113.361 481.612 113.096C481.454 112.503 481.357 111.881 481.326 111.25C481.274 112.215 481.371 113.185 481.612 114.094C481.67 114.359 481.777 114.599 481.921 114.791C482.146 115.051 482.469 115.076 482.759 115.012C483.371 114.878 483.978 114.299 484.1 113.464C484.159 113.036 484.118 112.518 484.374 112.273C484.63 112.028 484.993 112.283 485.12 112.659C485.164 112.785 485.198 112.916 485.222 113.051Z" fill="black"/>
</g>
</svg>
