<svg width="113" height="80" viewBox="0 0 113 80" fill="none" xmlns="http://www.w3.org/2000/svg">
<path d="M74.9049 40.5963L113 65.3963V14.749L74.9049 40.5963Z" fill="#F4998D"/>
<path d="M0 14.749V65.3963L38.0951 40.5963L0 14.749Z" fill="#F4998D"/>
<path d="M105.938 0H7.06254C3.53835 0 0.741601 2.70546 0.211914 6.18909L56.5 44.3782L112.788 6.18909C112.258 2.70546 109.462 0 105.938 0Z" fill="#F4998D"/>
<path d="M68.4356 44.9892L58.4421 51.7674C57.8489 52.1674 57.1779 52.3637 56.4999 52.3637C55.8219 52.3637 55.151 52.1674 54.5578 51.7674L44.5643 44.9819L0.225952 73.8619C0.769765 77.3165 3.55239 80.0001 7.06245 80.0001H105.937C109.447 80.0001 112.23 77.3165 112.774 73.8619L68.4356 44.9892Z" fill="#F4998D"/>
</svg>
