<svg width="20" height="15" viewBox="0 0 98 117" fill="none" xmlns="http://www.w3.org/2000/svg">
<path d="M85.75 43.875H81.6667V29.25C81.6667 13.1186 67.0157 0 49 0C30.9843 0 16.3333 13.1186 16.3333 29.25V43.875H12.25C5.49889 43.875 0 48.7939 0 54.8438V106.031C0 112.081 5.49889 117 12.25 117H85.75C92.5011 117 98 112.081 98 106.031V54.8438C98 48.7939 92.5011 43.875 85.75 43.875ZM27.2222 29.25C27.2222 18.4957 36.9896 9.75 49 9.75C61.0104 9.75 70.7778 18.4957 70.7778 29.25V43.875H27.2222V29.25ZM54.4444 81.5198V92.625C54.4444 95.316 52.0108 97.5 49 97.5C45.9892 97.5 43.5556 95.316 43.5556 92.625V81.5198C40.3161 79.8281 38.1111 76.7179 38.1111 73.125C38.1111 67.7479 42.9948 63.375 49 63.375C55.0052 63.375 59.8889 67.7479 59.8889 73.125C59.8889 76.7179 57.6839 79.8281 54.4444 81.5198Z" fill="#04d361"/>
</svg>
